<mxfile host="app.diagrams.net" modified="2023-05-17T07:07:15.697Z" agent="Mozilla/5.0 (Windows NT 10.0; Win64; x64) AppleWebKit/537.36 (KHTML, like Gecko) Chrome/113.0.0.0 Safari/537.36" version="21.2.9" etag="YwQcGsxXr5MCHkfcZ8k9" type="github">
  <diagram name="第 1 页" id="CzFiutMSPxQx58lT0ry6">
    <mxGraphModel>
      <root>
        <mxCell id="0" />
        <mxCell id="1" parent="0" />
      </root>
    </mxGraphModel>
  </diagram>
</mxfile>
